<svg width="353" height="445" viewBox="0 0 353 445" fill="none" xmlns="http://www.w3.org/2000/svg">
<rect x="280" y="203" width="26" height="186" rx="13" fill="#172863"/>
<rect x="268" y="154" width="77" height="82" rx="24" fill="#62C0F4"/>
<path d="M268 359.364C268 347.013 278.013 337 290.364 337H322.636C334.987 337 345 347.013 345 359.364V380.5C345 401.763 327.763 419 306.5 419C285.237 419 268 401.763 268 380.5V359.364Z" fill="#62C0F4"/>
<rect x="242" y="154" width="77" height="82" rx="24" fill="#1E90D0"/>
<path d="M242 356.524C242 345.741 250.741 337 261.524 337H299.476C310.259 337 319 345.741 319 356.524V380.5C319 401.763 301.763 419 280.5 419C259.237 419 242 401.763 242 380.5V356.524Z" fill="#1E90D0"/>
<circle cx="168" cy="323" r="15" fill="#E83B5A"/>
<circle cx="163" cy="317" r="15" fill="#EBD044"/>
<circle cx="170" cy="306" r="26" fill="#EBD044"/>
<circle cx="188" cy="375" r="26" fill="#EBD044"/>
<circle cx="179" cy="309" r="15" fill="#EBD044"/>
<circle cx="194.241" cy="312.241" r="12.2414" fill="#E83B5A"/>
<circle r="15" transform="matrix(-1 0 0 1 148 317)" fill="#EBD044"/>
<circle r="12.1978" transform="matrix(-1 0 0 1 147.802 300.198)" fill="#E83B5A"/>
<rect x="114" y="287" width="117" height="34" rx="16" fill="#172863"/>
<path d="M12 152C12 114.445 42.4446 84 80 84H285C322.555 84 353 114.445 353 152V268C353 287.882 336.882 304 317 304H48C28.1178 304 12 287.882 12 268V152Z" fill="#62C0F4"/>
<path d="M12 152C12 114.445 42.4446 84 80 84H285C322.555 84 353 114.445 353 152V164H12V152Z" fill="#C0EAF3"/>
<path d="M12 148C12 112.654 40.6538 84 76 84C111.346 84 140 112.654 140 148V268C140 287.882 123.882 304 104 304H48C28.1178 304 12 287.882 12 268V148Z" fill="#1E90D0"/>
<path d="M176 37C176 33.6863 178.686 31 182 31C185.314 31 188 33.6863 188 37V93C188 95.2091 186.209 97 184 97H180C177.791 97 176 95.2091 176 93V37Z" fill="#172863"/>
<circle cx="182" cy="20" r="20" fill="#E83B5A"/>
<circle cx="171" cy="13" r="4" fill="#EBD044"/>
<path d="M163 153C163 144.163 170.163 137 179 137H307C315.837 137 323 144.163 323 153V177C323 185.837 315.837 193 307 193H179C170.163 193 163 185.837 163 177V153Z" fill="#172863"/>
<rect x="187" y="149" width="21" height="32" rx="8" fill="#C0EAF3"/>
<rect x="278" y="149" width="21" height="32" rx="8" fill="#C0EAF3"/>
<rect x="38" y="203" width="26" height="186" rx="13" fill="#172863"/>
<rect x="26" y="152" width="77" height="82" rx="24" fill="#62C0F4"/>
<path d="M26 383.364C26 371.013 36.0125 361 48.3636 361H80.6364C92.9875 361 103 371.013 103 383.364V404.5C103 425.763 85.763 443 64.5 443C43.237 443 26 425.763 26 404.5V383.364Z" fill="#62C0F4"/>
<rect y="152" width="77" height="82" rx="24" fill="#1E90D0"/>
<path d="M0 380.524C0 369.741 8.74111 361 19.5238 361H57.4762C68.2589 361 77 369.741 77 380.524V404.5C77 425.763 59.763 443 38.5 443C17.237 443 0 425.763 0 404.5V380.524Z" fill="#1E90D0"/>
<g clip-path="url(#clip0_3_202)">
<path d="M163 225C163 220.582 166.582 217 171 217H315C319.418 217 323 220.582 323 225C323 229.418 319.418 233 315 233H171C166.582 233 163 229.418 163 225Z" fill="#172863"/>
</g>
<defs>
<clipPath id="clip0_3_202">
<path d="M163 225C163 220.582 166.582 217 171 217H315C319.418 217 323 220.582 323 225C323 229.418 319.418 233 315 233H171C166.582 233 163 229.418 163 225Z" fill="white"/>
</clipPath>
</defs>
</svg>
